<?xml version="1.0" encoding="utf-8"?>
<!-- Uploaded to: SVG Repo, www.svgrepo.com, Generator: SVG Repo Mixer Tools -->
<svg width="800px" height="800px" viewBox="0 0 1024 1024" class="icon"  version="1.1" xmlns="http://www.w3.org/2000/svg"><path d="M876.814586 346.125491v1.278761l-135.740502 93.189723 11.796573 525.602822h-98.816272l11.796572-525.602822-137.914396-93.189723v-1.278761h-0.927101l15.249227-281.167619h54.986732v212.210421h69.53264l5.083076-212.210421h60.101776l5.083076 212.210421h69.53264v-212.210421h57.512285z" fill="#5FCEFF" /><path d="M322.119946 60.514177l31.073897 905.68262H238.29715l15.504979-535.641098H201.596703V229.694284c0-76.949455 47.825669-142.70975 115.34426-169.244045h0.031969l5.147014 0.063938z" fill="#FF4893" /><path d="M316.493397 60.450239h0.447566c-67.518591 26.534295-115.34426 92.29459-115.34426 169.244045V430.555699H139.480878v-188.425463c0-98.816272 78.835628-179.186413 177.012519-181.679997z" fill="#FFB578" /><path d="M752.870657 988.575118h-98.816272a22.375124 22.375124 0 0 1-22.371927-22.880235l11.521638-513.39385-127.799394-86.354743a22.378321 22.378321 0 0 1-6.03895-6.051738 22.391109 22.391109 0 0 1-4.705841-14.980687l15.252424-281.167619a22.378321 22.378321 0 0 1 22.343155-21.166695h54.986732a22.378321 22.378321 0 0 1 22.378321 22.378321v189.8321h25.306684l4.558783-190.365983a22.378321 22.378321 0 0 1 22.371928-21.844438h60.101776a22.378321 22.378321 0 0 1 22.371927 21.844438l4.558784 190.365983h25.306684v-189.8321a22.378321 22.378321 0 0 1 22.378321-22.378321h57.512285a22.378321 22.378321 0 0 1 22.355943 21.3681l12.720477 281.167619c0.015985 0.335675 0.022378 0.674547 0.022378 1.010221v1.278761a22.384715 22.384715 0 0 1-9.712191 18.449327l-125.762967 86.33876 11.524835 513.502544a22.378321 22.378321 0 0 1-22.365533 22.880235z m-75.929644-44.756642h53.043015l-11.281871-502.722588a22.378321 22.378321 0 0 1 9.705798-18.951241l125.545578-86.191701-11.249902-248.616753h-13.746683v189.8321a22.378321 22.378321 0 0 1-22.378321 22.378321h-69.53264a22.378321 22.378321 0 0 1-22.371927-21.844438l-4.558784-190.365983h-16.406506l-4.558784 190.365983a22.378321 22.378321 0 0 1-22.371927 21.844438h-69.53264a22.378321 22.378321 0 0 1-22.378322-22.378321v-189.8321h-11.409746l-13.452568 247.970978 128.374837 86.744766a22.371927 22.371927 0 0 1 9.843264 19.043951l-11.281871 502.722588zM353.193843 988.575118H238.29715a22.384715 22.384715 0 0 1-22.368731-23.024096l15.50498-535.644294a22.371927 22.371927 0 0 1 23.017701-21.719759 22.378321 22.378321 0 0 1 21.719759 23.017701L261.330836 943.821673h68.701445L299.751216 61.284631a22.378321 22.378321 0 0 1 44.731067-1.534514l31.073897 905.68262a22.378321 22.378321 0 0 1-22.362337 23.142381z" fill="#4F46A3" /><path d="M253.802129 452.93402H139.480878a22.378321 22.378321 0 1 1 0-44.756642h114.321251a22.378321 22.378321 0 1 1 0 44.756642zM316.963342 82.82856a22.378321 22.378321 0 0 1-0.511505-44.750248c1.57927-0.038363 3.161737-0.070332 4.741007-0.070332a22.378321 22.378321 0 1 1 0 44.756642c-1.234005 0-2.464812 0.028772-3.698816 0.057544-0.17583 0.006394-0.354856 0.006394-0.530686 0.006394z" fill="#4F46A3" /><path d="M139.480878 452.93402a22.378321 22.378321 0 0 1-22.378321-22.378321v-188.425463c0-53.608866 20.616827-104.24781 58.055758-142.594661 37.368599-38.27652 87.361768-60.101776 140.766033-61.457263l0.569049-0.006394h0.447566a22.378321 22.378321 0 1 1 0 44.756642h-0.153451c-86.901414 2.349724-154.928313 72.272386-154.928313 159.301676v188.425463a22.378321 22.378321 0 0 1-22.378321 22.378321z" fill="#4F46A3" /><path d="M201.596703 450.120746a22.378321 22.378321 0 0 1-22.378321-22.378321v-198.048141c0-84.538903 50.846742-159.148225 129.53851-190.071868a22.352746 22.352746 0 0 1 8.279979-1.582467 22.378321 22.378321 0 0 1 7.541494 43.455502C263.443989 105.772733 223.975024 163.879642 223.975024 229.694284v198.048141a22.378321 22.378321 0 0 1-22.378321 22.378321z" fill="#4F46A3" /></svg>